solid OpenSCAD_Model
  facet normal -1 -0 -0
    outer loop
      vertex 0 0 0
      vertex 0 0 20
      vertex 0 40 0
    endloop
  endfacet
  facet normal -1 0 0
    outer loop
      vertex 0 40 0
      vertex 0 0 20
      vertex 0 40 20
    endloop
  endfacet
  facet normal 0 -1 0
    outer loop
      vertex 0 0 20
      vertex 0 0 0
      vertex 40 0 0
    endloop
  endfacet
  facet normal 0 -1 0
    outer loop
      vertex 40 0 20
      vertex 0 0 20
      vertex 40 0 0
    endloop
  endfacet
  facet normal -0 -0 -1
    outer loop
      vertex 0 0 0
      vertex 0 40 0
      vertex 40 0 0
    endloop
  endfacet
  facet normal 0 0 -1
    outer loop
      vertex 40 0 0
      vertex 0 40 0
      vertex 40 40 0
    endloop
  endfacet
  facet normal 0 1 0
    outer loop
      vertex 0 40 0
      vertex 0 40 20
      vertex 40 40 0
    endloop
  endfacet
  facet normal 0 1 0
    outer loop
      vertex 20 40 19.01
      vertex 0 40 20
      vertex 20 40 20
    endloop
  endfacet
  facet normal 0 1 0
    outer loop
      vertex 40 40 0
      vertex 0 40 20
      vertex 20 40 19.01
    endloop
  endfacet
  facet normal 0 1 0
    outer loop
      vertex 40 40 0
      vertex 24 40 19.01
      vertex 24 40 20
    endloop
  endfacet
  facet normal 0 1 0
    outer loop
      vertex 40 40 0
      vertex 24 40 20
      vertex 40 40 20
    endloop
  endfacet
  facet normal 0 1 -0
    outer loop
      vertex 24 40 19.01
      vertex 40 40 0
      vertex 20 40 19.01
    endloop
  endfacet
  facet normal 0 -0 1
    outer loop
      vertex 0 40 20
      vertex 0 0 20
      vertex 40 0 20
    endloop
  endfacet
  facet normal -0 -0 1
    outer loop
      vertex 20 32.01 20
      vertex 0 40 20
      vertex 40 0 20
    endloop
  endfacet
  facet normal 0 0 1
    outer loop
      vertex 40 40 20
      vertex 24 40 20
      vertex 40 0 20
    endloop
  endfacet
  facet normal 0 -0 1
    outer loop
      vertex 24 40 20
      vertex 24 32.01 20
      vertex 40 0 20
    endloop
  endfacet
  facet normal 0 -0 1
    outer loop
      vertex 24 32.01 20
      vertex 20 32.01 20
      vertex 40 0 20
    endloop
  endfacet
  facet normal 0 0 1
    outer loop
      vertex 20 32.01 20
      vertex 20 40 20
      vertex 0 40 20
    endloop
  endfacet
  facet normal 1 0 -0
    outer loop
      vertex 40 0 20
      vertex 40 0 0
      vertex 40 40 0
    endloop
  endfacet
  facet normal 1 0 0
    outer loop
      vertex 40 40 20
      vertex 40 0 20
      vertex 40 40 0
    endloop
  endfacet
  facet normal -1 0 0
    outer loop
      vertex 24 40 20
      vertex 24 40 19.01
      vertex 24 32.01 20
    endloop
  endfacet
  facet normal -1 0 0
    outer loop
      vertex 24 32.01 20
      vertex 24 40 19.01
      vertex 24 32.01 19.01
    endloop
  endfacet
  facet normal 0 0 1
    outer loop
      vertex 24 32.01 19.01
      vertex 24 40 19.01
      vertex 20 40 19.01
    endloop
  endfacet
  facet normal 0 0 1
    outer loop
      vertex 20 32.01 19.01
      vertex 24 32.01 19.01
      vertex 20 40 19.01
    endloop
  endfacet
  facet normal 1 0 0
    outer loop
      vertex 20 40 19.01
      vertex 20 40 20
      vertex 20 32.01 20
    endloop
  endfacet
  facet normal 1 0 0
    outer loop
      vertex 20 32.01 19.01
      vertex 20 40 19.01
      vertex 20 32.01 20
    endloop
  endfacet
  facet normal 0 1 0
    outer loop
      vertex 24 32.01 20
      vertex 24 32.01 19.01
      vertex 20 32.01 20
    endloop
  endfacet
  facet normal 0 1 -0
    outer loop
      vertex 20 32.01 20
      vertex 24 32.01 19.01
      vertex 20 32.01 19.01
    endloop
  endfacet
endsolid OpenSCAD_Model
